#N canvas 2718 196 1732 424 12;
#X text 221 51 <-- close connection;
#X floatatom 16 277 5 0 1 0 - - - 0;
#X text 54 278 <-- connection status;
#X obj 28 209 osc/packOSC;
#X floatatom 28 148 5 0 1000 0 - - - 0;
#X obj 31 94 hsl 128 15 0 2 0 0 empty empty empty -2 -8 0 10 #00ff04 #000000 #000000 0 1;
#X obj 28 121 int;
#X text 228 20 <-- connect to localhost address;
#X obj 16 245 udpsend;
#X msg 27 53 disconnect;
#X msg 28 179 send /ledleft \$1;
#X obj 607 72 unpackOSC;
#X floatatom 607 171 5 0 0 0 - - - 0;
#X obj 607 28 udpreceive 2390;
#X obj 607 132 route /ledleft;
#X obj 693 219 print ledleft;
#X text 1088 56 <-- close connection;
#X floatatom 883 282 5 0 1 0 - - - 0;
#X text 921 283 <-- connection status;
#X obj 895 214 osc/packOSC;
#X floatatom 895 153 5 0 1000 0 - - - 0;
#X obj 898 99 hsl 128 15 0 2 0 0 empty empty empty -2 -8 0 10 #00ff04 #000000 #000000 0 1;
#X obj 895 126 int;
#X text 1095 25 <-- connect to localhost address;
#X obj 883 250 udpsend;
#X msg 894 58 disconnect;
#X obj 1474 77 unpackOSC;
#X floatatom 1474 176 5 0 0 0 - - - 0;
#X obj 1474 33 udpreceive 2390;
#X msg 16 22 connect 192.168.1.171 2390;
#X msg 883 27 connect 192.168.1.172 2391;
#X obj 1474 136 route /ledright;
#X obj 1560 224 print ledright;
#X msg 895 184 send /ledright \$1;
#X text 157 178 <-- Left drumstick;
#X text 1036 184 Right drumstick;
#X connect 3 0 8 0;
#X connect 4 0 10 0;
#X connect 5 0 6 0;
#X connect 6 0 4 0;
#X connect 8 0 1 0;
#X connect 9 0 8 0;
#X connect 10 0 3 0;
#X connect 11 0 14 0;
#X connect 13 0 11 0;
#X connect 14 0 12 0;
#X connect 14 0 15 0;
#X connect 19 0 24 0;
#X connect 20 0 33 0;
#X connect 21 0 22 0;
#X connect 22 0 20 0;
#X connect 24 0 17 0;
#X connect 25 0 24 0;
#X connect 26 0 31 0;
#X connect 28 0 26 0;
#X connect 29 0 8 0;
#X connect 30 0 24 0;
#X connect 31 0 27 0;
#X connect 31 0 32 0;
#X connect 33 0 19 0;
