#N canvas 29 32 1356 545 12;
#X obj 389 196 unpackOSC;
#X obj 389 236 route /hihat;
#X floatatom 19 255 5 0 0 0 - - - 0;
#X obj 389 279 print hihat;
#X obj 389 158 udpreceive 9998;
#X floatatom 19 412 5 0 1 0 - - - 0;
#X text 60 409 <-- connection status;
#X obj 19 382 osc/packOSC;
#X floatatom 19 290 5 0 1000 0 - - - 0;
#X obj 22 195 hsl 128 15 0 1 0 0 empty empty empty -2 -8 0 10 #00ff04 #000000 #000000 0 1;
#X obj 19 221 int;
#X msg 19 322 send /hihat \$1;
#X obj 19 167 udpsend;
#X msg 30 77 disconnect;
#X msg 19 54 connect 192.168.1.79 9999;
#X text 106 383 comment;
#X text 212 50 <-- Connect to Unity;
#X text 512 156 <-- Receive from Physical Device;
#X obj 19 15 loadbang;
#X obj 804 189 unpackOSC;
#X obj 804 151 udpreceive 9998;
#X text 926 149 <-- Receive from Physical Device;
#X obj 804 223 route /drumbass;
#X obj 804 271 print drumbass;
#X msg 19 354 send /drumbass \$1;
#X floatatom 390 336 5 0 0 0 - - - 0;
#X text 160 192 <-- backup;
#X connect 0 0 1 0;
#X connect 1 0 2 0;
#X connect 1 0 3 0;
#X connect 2 0 11 0;
#X connect 4 0 0 0;
#X connect 7 0 12 0;
#X connect 8 0 11 0;
#X connect 9 0 10 0;
#X connect 10 0 2 0;
#X connect 11 0 7 0;
#X connect 12 0 5 0;
#X connect 13 0 12 0;
#X connect 14 0 12 0;
#X connect 18 0 14 0;
#X connect 19 0 22 0;
#X connect 20 0 19 0;
#X connect 22 0 23 0;
#X connect 22 0 25 0;
#X connect 24 0 7 0;
#X connect 25 0 24 0;
